IKResults
version=1
nRows=4
nColumns=63
inDegrees=yes

Units are S.I. units (second, meters, Newtons, ...)
If the header above contains a line with 'inDegrees', this indicates whether rotational values are in degrees (yes) or radians (no).

endheader
time	pelvis_tilt	pelvis_list	pelvis_rotation	pelvis_tx	pelvis_ty	pelvis_tz	hip_flexion_r	hip_adduction_r	hip_rotation_r	knee_angle_r	knee_angle_r_beta	ankle_angle_r	subtalar_angle_r	mtp_angle_r	hip_flexion_l	hip_adduction_l	hip_rotation_l	knee_angle_l	knee_angle_l_beta	ankle_angle_l	subtalar_angle_l	mtp_angle_l	L5_S1_Flex_Ext	L5_S1_Lat_Bending	L5_S1_axial_rotation	L4_L5_Flex_Ext	L4_L5_Lat_Bending	L4_L5_axial_rotation	L3_L4_Flex_Ext	L3_L4_Lat_Bending	L3_L4_axial_rotation	L2_L3_Flex_Ext	L2_L3_Lat_Bending	L2_L3_axial_rotation	L1_L2_Flex_Ext	L1_L2_Lat_Bending	L1_L2_axial_rotation	L1_T12_Flex_Ext	L1_T12_Lat_Bending	L1_T12_axial_rotation	Abs_r3	Abs_r2	Abs_r1	Abs_t1	Abs_t2	neck_flexion	neck_bending	neck_rotation	arm_flex_r	arm_add_r	arm_rot_r	elbow_flex_r	pro_sup_r	wrist_flex_r	wrist_dev_r	arm_flex_l	arm_add_l	arm_rot_l	elbow_flex_l	pro_sup_l	wrist_flex_l	wrist_dev_l
      4.03333333	    -26.71370750	     -7.25925618	     40.38712183	     -0.38568050	      0.89062638	     -0.05705831	     18.37689517	    -12.98869896	    -24.54338122	     21.49790986	      0.37520931	     33.89934134	     -4.87655305	      0.00000000	     52.96427976	      4.20748511	     -7.23149949	     29.57140424	      0.51611837	     14.52189648	    -15.03874838	      0.00000000	      2.23815183	     -1.14513515	     -2.72580496	      4.15647176	     -1.52302975	     -2.89616777	      3.67705964	     -2.78428161	     -2.89616777	      2.55798373	     -2.78428161	     -2.38507934	      2.07834779	     -2.33515960	     -2.21471653	      1.27887996	     -1.77381435	     -2.04435372	     15.98689470	    -12.95399787	    -15.16010946	      0.00000000	      0.00000000	     10.34897855	      7.03911161	     -5.26440050	     19.93984207	     -3.80430016	   -197.28829183	      0.26909120	     89.99559364	      0.00000000	      0.00000000	    -19.78015658	    -18.39128754	      0.29292679	     27.14577664	     89.99559364	      0.00000000	      0.00000000
      4.06666667	    -25.83510226	     -5.23058996	     39.20668286	     -0.37501977	      0.88804538	     -0.06964959	     15.28674030	    -14.05457370	    -24.90488315	     21.06747048	      0.36769672	     35.15217226	     -3.09214857	      0.00000000	     51.49256512	      4.59451571	     -9.30118161	     24.36414344	      0.42523452	     13.25947136	    -14.72502809	      0.00000000	      1.69985789	     -1.28433231	     -2.35423111	      3.15680608	     -1.70816197	     -2.50137055	      2.79269652	     -3.12272557	     -2.50137055	      1.94276758	     -3.12272557	     -2.05995222	      1.57848803	     -2.61901044	     -1.91281278	      0.97129880	     -1.98943074	     -1.76567333	     12.14191489	    -14.52862393	    -13.09352715	      0.00000000	      0.00000000	     12.66942370	      7.85403571	     -6.72989783	     23.15676693	     -3.49353076	   -199.33636301	      0.25580290	     89.99559364	      0.00000000	      0.00000000	    -19.81770632	    -19.00584262	      0.47200200	     25.79417964	     89.99559364	      0.00000000	      0.00000000
      4.10000000	    -24.68192157	     -3.59055787	     37.64250616	     -0.36257700	      0.88444795	     -0.08243261	     12.39973384	    -14.57906427	    -24.36354042	     20.85172294	      0.36393122	     36.06346192	     -2.38334695	      0.00000000	     49.88429837	      4.37734039	    -10.57537401	     19.77801724	      0.34519152	     12.00090125	    -14.53574499	      0.00000000	      1.17209758	     -1.39751695	     -1.93434994	      2.17670241	     -1.85869755	     -2.05524681	      1.92563911	     -3.39792272	     -2.05524681	      1.33959032	     -3.39792272	     -1.69255620	      1.08840981	     -2.84981657	     -1.57165933	      0.66973656	     -2.16475376	     -1.45076246	      8.37217578	    -15.80899129	    -10.75827408	      0.00000000	      0.00000000	     14.85235221	      8.51787654	     -8.69289647	     26.03374904	     -3.17544566	   -200.12598903	      0.24623059	     89.99559364	      0.00000000	      0.00000000	    -19.99819447	    -19.84573919	      1.46004484	     25.07318585	     89.99559364	      0.00000000	      0.00000000
      4.13333333	    -23.24704784	     -2.02427840	     35.76176269	     -0.34909401	      0.88059998	     -0.09558997	      9.61897698	    -15.08255279	    -23.32830899	     21.12411599	      0.36868538	     36.82026554	     -2.03557757	      0.00000000	     48.00673014	      3.72638923	    -11.51978956	     16.20149267	      0.28276939	     10.74850937	    -14.35776761	      0.00000000	      0.60815550	     -1.51010267	     -1.47258967	      1.12940558	     -2.00843655	     -1.56462653	      0.99913867	     -3.67166363	     -1.56462653	      0.69506092	     -3.67166363	     -1.28851596	      0.56473320	     -3.07940136	     -1.19647911	      0.34750005	     -2.33914904	     -1.10444225	      4.34399391	    -17.08258342	     -8.19010199	      0.00000000	      0.00000000	     17.23401524	      9.24514753	    -10.81325535	     28.73600253	     -2.82648560	   -200.12107048	      0.23949758	     89.99559364	      0.00000000	      0.00000000	    -20.16018958	    -20.79907920	      2.33048409	     25.10791694	     89.99559364	      0.00000000	      0.00000000
